<svg xmlns="http://www.w3.org/2000/svg" xmlns:xlink="http://www.w3.org/1999/xlink" width="68" height="68">
  <defs>
    <linearGradient id="b" x1="85.679%" x2="9.436%" y1="75.541%" y2="26.451%">
      <stop offset="0%" stop-color="#E8F0FF" />
      <stop offset="100%" stop-color="#CDDDFF" />
    </linearGradient>
    <path id="a" d="M0 0h68v68H0z" />
  </defs>
  <g fill="none" fill-rule="evenodd">
    <mask id="c" fill="#fff">
      <use xlink:href="#a" />
    </mask>
    <path fill="url(#b)" fill-rule="nonzero"
      d="M65.958 65.593v-40.65l-.163-.38c-.106-.248-2.167-4.95-9.97-6.807v-.057h-.219c-1.885-.43-4.088-.699-6.68-.699-8.352 0-12.751 2.74-14.94 4.929C31.797 19.747 27.39 17 19.038 17 5.453 17 2.289 24.259 2.162 24.562L2 24.944V65.31c0 1.567.487 2.718 1.455 3.424 1.518 1.109 3.46.502 4.187.276l.219-.085c7.06-3.142 18.57-.925 22.05.092.474.14 1.462.43 2.529.43.557 0 1.13-.098 1.666-.317 1.356.515 2.81.063 3.424-.127l.22-.085c7.06-3.142 18.577-.925 22.05.092.474.14 1.462.43 2.528.43.947 0 1.963-.233 2.733-.995.876-.84 1.03-1.991.897-2.853Zm-42.69-18.81H12.612a2.09 2.09 0 1 1 0-4.18h10.654a2.09 2.09 0 1 1 0 4.18ZM42.31 23.97c4.596-2.071 11.786-1.122 13.521.078v14.27l-6.68-3.976-6.841 3.933Zm-19.044 9.898a2.09 2.09 0 1 1 0 4.18H12.613a2.09 2.09 0 1 1 0-4.18h10.654Z"
      mask="url(#c)" />
  </g>
</svg>
