<svg xmlns="http://www.w3.org/2000/svg" xmlns:xlink="http://www.w3.org/1999/xlink" width="68" height="68">
  <defs>
    <linearGradient id="b" x1="83.504%" x2="9.436%" y1="80.05%" y2="16.516%">
      <stop offset="0%" stop-color="#E2EAF8" />
      <stop offset="100%" stop-color="#CDDDFF" />
    </linearGradient>
    <path id="a" d="M0 0h68v68H0z" />
  </defs>
  <g fill="none" fill-rule="evenodd">
    <mask id="c" fill="#fff">
      <use xlink:href="#a" />
    </mask>
    <path fill="url(#b)" fill-rule="nonzero"
      d="M4 68.495c0 4.052 3.43 7.137 7.941 7.137H56.06c4.51 0 7.941-3.086 7.941-7.137V33.612H4v34.883Zm39.176-24.192c-.794-.717-1.048-1.652-.254-2.37.794-.716 1.843-.934 2.637-.249l7.941 5.922c.476.219.794.686.794 1.185a3.442 3.442 0 0 1-.54 1.433l-7.941 6.888a2.092 2.092 0 0 1-2.637 0c-.794-.717-.794-1.901 0-2.368l6.353-5.455-6.353-4.986Zm-14.989 10.44 7.941-12.81c.54-.934 1.588-1.183 2.637-.716 1.048.468 1.334 1.434.794 2.369l-7.941 12.81c-.35.53-.953.872-1.589.934-.254 0-.794 0-1.048-.25-.794-.435-1.334-1.37-.794-2.336ZM14.5 47.389l7.941-5.922a1.891 1.891 0 0 1 2.637.218c.603.561.635 1.528.063 2.12a1.24 1.24 0 0 1-.317.249L18.47 48.79l6.353 5.455a1.471 1.471 0 0 1 .285 2.088c-.095.093-.158.187-.285.28a2.093 2.093 0 0 1-2.637 0l-7.941-6.888a1.855 1.855 0 0 1-.54-1.433c0-.188.254-.437.794-.904ZM11.941 17C7.431 17 4 20.086 4 24.137v7.138h60v-7.138C64 20.085 60.57 17 56.059 17H11.94Zm5.305 9.506H11.94v-4.768h5.305v4.768Zm10.578 0h-5.305v-4.768h5.305v4.768Zm10.577 0h-5.273v-4.768h5.305v4.768H38.4Z"
      mask="url(#c)" />
  </g>
</svg>