<svg width="10px" height="10px" viewBox="0 0 10 10">
  <title>箭头 (5)</title>
  <desc>Created with Sketch.</desc>
  <defs>
    <rect id="path-1" x="8" y="0" width="266" height="300" rx="8"></rect>
    <filter x="-13.2%" y="-8.3%" width="126.3%" height="123.3%" filterUnits="objectBoundingBox" id="filter-2">
      <feOffset dx="0" dy="10" in="SourceAlpha" result="shadowOffsetOuter1"></feOffset>
      <feGaussianBlur stdDeviation="10" in="shadowOffsetOuter1" result="shadowBlurOuter1"></feGaussianBlur>
      <feColorMatrix values="0 0 0 0 0.209412093   0 0 0 0 0.227668165   0 0 0 0 0.451907835  0 0 0 0.08 0"
        type="matrix" in="shadowBlurOuter1"></feColorMatrix>
    </filter>
  </defs>
  <g id="\u9875\u9762-1" stroke="none" stroke-width="1" fill="none" fill-rule="evenodd">
    <g id="\u9996\u9875" transform="translate(-236.000000, -1219.000000)">
      <g id="\u7F16\u7EC4-41" transform="translate(145.000000, 957.000000)">
        <g id="\u5361\u7247/\u8425\u9500\u76EE\u6807/\u5168\u5E97\u63A8\u5E7F">
          <g id="Rectangle-3">
            <use fill="black" fill-opacity="1" filter="url(#filter-2)" xlink:href="#path-1"></use>
            <use fill="#FFFFFF" fill-rule="evenodd" xlink:href="#path-1"></use>
          </g>
          <g id="Group-14" transform="translate(0.000000, 258.000000)" fill="#FF5000" fill-rule="nonzero">
            <g id="\u7BAD\u5934-(5)"
              transform="translate(95.500000, 9.500000) scale(-1, 1) translate(-95.500000, -9.500000) translate(90.000000, 4.000000)">
              <path
                d="M3.7929133,0.261509234 L0.221454514,4.42724953 C-0.057474681,4.75259183 -0.057474681,5.27998284 0.221454514,5.60532514 L3.7929133,9.77106544 C4.0718425,10.0964077 4.52399629,10.0964077 4.80292549,9.77106544 C5.08185468,9.44572314 5.08185468,8.91833213 4.80292549,8.59298983 L2.45075207,5.84942083 L9.29795754,5.84942083 C9.69260559,5.84942083 10.0122576,5.47657954 10.0122576,5.01626307 C10.0122576,4.5559466 9.69260559,4.1831053 9.29795754,4.1831053 L2.45075207,4.1831053 L4.80292549,1.4395363 C4.94222364,1.27707547 5.01221254,1.06378294 5.01221254,0.850490412 C5.01221254,0.637197882 4.9425704,0.42392153 4.80292549,0.261444522 C4.52399629,-0.0638977701 4.0718425,-0.0638977701 3.7929133,0.261444522 L3.7929133,0.261509234 Z"
                id="\u8DEF\u5F84"></path>
            </g>
          </g>
        </g>
      </g>
    </g>
  </g>
</svg>
